<?xml version="1.0" encoding="UTF-8" standalone="no"?>
<!-- Created with Inkscape (http://www.inkscape.org/) -->

<svg
   width="128"
   height="128"
   viewBox="0 0 33.866665 33.866667"
   version="1.1"
   id="svg1"
   inkscape:version="1.4.2 (ebf0e940d0, 2025-05-08)"
   sodipodi:docname="logo.svg"
   xmlns:inkscape="http://www.inkscape.org/namespaces/inkscape"
   xmlns:sodipodi="http://sodipodi.sourceforge.net/DTD/sodipodi-0.dtd"
   xmlns:xlink="http://www.w3.org/1999/xlink"
   xmlns="http://www.w3.org/2000/svg"
   xmlns:svg="http://www.w3.org/2000/svg">
  <sodipodi:namedview
     id="namedview1"
     pagecolor="#ffffff"
     bordercolor="#111111"
     borderopacity="1"
     inkscape:showpageshadow="0"
     inkscape:pageopacity="0"
     inkscape:pagecheckerboard="1"
     inkscape:deskcolor="#d1d1d1"
     inkscape:document-units="mm"
     inkscape:zoom="11.313708"
     inkscape:cx="50.071999"
     inkscape:cy="78.091105"
     inkscape:window-width="3840"
     inkscape:window-height="2126"
     inkscape:window-x="2160"
     inkscape:window-y="2194"
     inkscape:window-maximized="1"
     inkscape:current-layer="g1" />
  <defs
     id="defs1">
    <linearGradient
       id="linearGradient1"
       inkscape:collect="always">
      <stop
         style="stop-color:#efc4d6;stop-opacity:1;"
         offset="0"
         id="stop1" />
      <stop
         style="stop-color:#fc58ff;stop-opacity:1;"
         offset="1"
         id="stop2" />
    </linearGradient>
    <linearGradient
       inkscape:collect="always"
       xlink:href="#linearGradient1"
       id="linearGradient2"
       x1="12"
       y1="3.2496386"
       x2="12"
       y2="20.749638"
       gradientUnits="userSpaceOnUse" />
  </defs>
  <g
     inkscape:label="Layer 1"
     inkscape:groupmode="layer"
     id="layer1">
    <g
       fill="none"
       stroke="currentColor"
       stroke-linecap="round"
       stroke-width="1.5"
       id="g1"
       transform="matrix(1.3294549,0,0,1.3294549,2.6015523,0.58387333)">
      <path
         d="m 5,7 1.76,10.405 c 0.306,1.808 0.46,2.713 1,3.337 1.454,1.677 7.026,1.677 8.48,0 0.54,-0.624 0.694,-1.529 1,-3.337 L 19,7 M 5,7 5.743,5.288 C 6.352,3.884 6.656,3.182 7.291,2.786 c 1.59,-0.993 7.654,-1.102 9.418,0 0.635,0.396 0.94,1.098 1.548,2.502 L 19,7 M 4,7 h 16"
         id="path1"
         style="fill:url(#linearGradient2)" />
      <ellipse
         cx="12"
         cy="14.5"
         rx="2"
         ry="2.5"
         id="ellipse1" />
    </g>
  </g>
</svg>
